<?xml version="1.0" standalone="no"?>
<!DOCTYPE svg PUBLIC "-//W3C//DTD SVG 1.1//EN" "http://www.w3.org/Graphics/SVG/1.1/DTD/svg11.dtd" >
<!--
2013-9-30: Created.
-->
<svg>
<metadata>
Created by iconfont
</metadata>
<defs>

<font id="iconfont" horiz-adv-x="1024" >
  <font-face
    font-family="iconfont"
    font-weight="500"
    font-stretch="normal"
    units-per-em="1024"
    ascent="896"
    descent="-128"
  />
    <missing-glyph />
    
    <glyph glyph-name="xiazai" unicode="&#58919;" d="M847.5 384H707.7L512 188.3 316.3 384H176.5L64.7 160.3v-55.9h894.7v55.9L847.5 384z m-83.9 167.7H567.9V775.4H456.1v-223.7H260.4L512 300.1l251.6 251.6zM64.7 48.5h894.7v-55.9H64.7v55.9z"  horiz-adv-x="1024" />

    
    <glyph glyph-name="huifu" unicode="&#58915;" d="M521.80446904-45.88826777999998c-5.02793262 0-10.05586612 2.13687158-13.4497204 5.78212296-51.41061474 53.17039073-103.19832422 107.09497178-153.85474864 160.2653625H182.92178779c-32.05307285 0-62.47206738 14.07821221-85.72625683 39.72067031-22.37430146 24.76257012-35.19553096 57.69553096-35.19553096 90.3770956V692.84078232c0 67.75139707 53.17039073 122.8072623 118.53351914 122.80726231h682.91899453c65.36312842 0 118.40782148-55.05586612 118.40782149-122.68156377v-442.70949727c0-32.68156465-12.82122862-65.61452549-35.32122862-90.25139707-23.25419033-25.6424581-53.67318398-39.72067031-85.72625771-39.72067031H685.08659199c-24.38547451-23.75698359-69.25977685-69.88826778-145.81005556-155.74022314-2.26257011-2.63966484-3.7709499-4.14804463-4.0223461-4.52514024-3.39385518-3.7709499-8.29608926-5.90782148-13.44972129-5.90782061zM180.40782148 747.39385518c-28.78491622 0-52.29050273-24.38547451-52.29050273-54.42737432v-442.8351958c0-28.78491622 23.88268125-62.09497177 54.80446904-62.09497178H357.51675958c21.62011201 0 45.50279326-21.99720674 46.50837977-23.00279414l0.12569854-0.12569766 119.16201094-123.68715117 119.03631328 123.68715117c1.63407833 1.75977685 21.11731875 23.25419033 43.61731875 23.25418946h174.46927325c30.92178779 0 54.80446904 33.43575411 54.80446904 62.09497265V692.96648086c0 29.91620127-23.37988799 54.42737432-52.29050274 54.42737432h-682.54189893z m569.0363124-354.21787794c-33.93854737 0-61.59217852 28.53351914-61.59217851 63.72905098 0 35.06983242 27.65363115 63.7290501 61.59217851 63.7290501s61.59217852-28.53351914 61.5921794-63.7290501c0-35.19553096-27.52793261-63.7290501-61.5921794-63.72905098z m-227.5139663 0c-33.93854737 0-61.59217852 28.53351914-61.59217852 63.72905098 0 35.06983242 27.65363115 63.7290501 61.59217852 63.7290501h4.65083789v-0.25139707c31.80167578-2.51396631 56.81564209-30.0418998 56.81564297-63.47765303 0-35.19553096-27.65363115-63.7290501-61.46648086-63.72905098z m-227.63966485 0c-33.93854737 0-61.59217852 28.53351914-61.59217851 63.72905098 0 33.43575411 25.13966484 60.96368672 56.94134062 63.47765303v0.12569854h4.65083789c33.93854737 0 61.59217852-28.53351914 61.59217852-63.7290501 0-35.06983242-27.65363115-63.60335156-61.59217852-63.60335245z"  horiz-adv-x="1046" />

    
    <glyph glyph-name="anzhuo1" unicode="&#59219;" d="M890.911 595.15c-32.252 0-58.407-26.558-58.407-59.317v-231.81c0-32.763 26.153-59.32 58.407-59.32 32.258 0 58.407 26.558 58.407 59.32v231.81c0.001 32.76-26.147 59.318-58.407 59.318m-704.493 0c-32.256 0-58.407-26.559-58.407-59.318v-231.81c0-32.763 26.151-59.32 58.407-59.32s58.407 26.558 58.407 59.32v231.81c0 32.76-26.151 59.318-58.407 59.318m93.554-1.796v-423.517c0-25.155 20.393-45.547 45.549-45.547h52.035v-128.973c0-32.763 26.15-59.32 58.407-59.32 32.258 0 58.409 26.559 58.409 59.32V124.292h90.904V-4.68c0-32.763 26.153-59.32 58.406-59.32 32.258 0 58.413 26.558 58.413 59.32V124.292h52.03c25.16 0 45.55 20.39 45.55 45.547V593.355H279.973m381.88 219.459l48.008 69.689c2.85 4.14 2.141 9.576-1.584 12.143-3.726 2.565-9.057 1.291-11.906-2.85l-49.868-72.39c-32.861 12.946-69.376 20.161-107.838 20.161-38.463 0-74.975-7.214-107.837-20.162L380.96 891.795c-2.85 4.142-8.182 5.415-11.907 2.851-3.726-2.568-4.433-8.005-1.583-12.143l48.008-69.69c-76.325-35.506-129.852-102.971-136.665-181.716h519.704c-6.814 78.745-60.341 146.21-136.664 181.717m-232.816-109.83c-15.88 0-28.755 12.871-28.755 28.754 0 15.88 12.874 28.754 28.755 28.754 15.881 0 28.754-12.873 28.754-28.754 0-15.882-12.871-28.754-28.754-28.754m222.85 0c-15.88 0-28.75 12.871-28.75 28.754 0 15.88 12.87 28.754 28.75 28.754 15.886 0 28.757-12.873 28.757-28.754 0-15.882-12.87-28.754-28.756-28.754"  horiz-adv-x="1024" />

    
    <glyph glyph-name="pingguo1" unicode="&#58885;" d="M820.764209 352.074412c-1.083517 129.480294 105.642918 191.782528 110.518745 195.03308-60.135199 87.764886-153.859429 100.225332-186.906701 101.308849-79.638507 8.126378-155.484705-47.132994-196.116597-47.132994-40.631892 0-102.934125 45.507718-169.028669 44.424201-86.681369-1.083517-166.861634-50.383545-211.827594-128.396777-90.473678-156.568222-23.295618-388.982641 65.011026-515.754143 42.798926-62.302234 94.265988-132.189087 161.444049-129.480294 65.011026 2.708793 89.390161 41.715409 167.403393 41.715408s100.225332-41.715409 169.028669-40.631891c69.886853 1.083517 113.769296 63.385751 156.568222 125.687984 49.300028 72.053888 69.886853 141.940741 70.970371 145.733051-1.083517 1.083517-135.439638 52.55058-137.064914 207.493526z m-128.938536 380.314505c35.756065 43.340684 59.593441 103.475884 53.092338 163.611083-51.467063-2.167034-113.769296-34.130789-150.608878-77.471473-33.047272-38.464857-62.302234-99.683574-54.175855-158.193498 57.426407-4.875827 115.93633 29.254962 151.692395 72.053888z"  horiz-adv-x="1083" />

    
    <glyph glyph-name="h" unicode="&#58977;" d="M120.832 814.93333333l67.584-784.384 319.488-90.112 315.392 94.208 65.536 780.288z m618.496-243.712H364.544l8.192-90.112h360.448l-30.72-315.392-196.608-53.248-194.56 53.248-14.336 159.744h88.064l10.24-98.304 110.592-26.624 120.832 28.672 14.336 172.032-352.256-2.048-22.528 264.192h485.376z"  horiz-adv-x="1024" />

    
    <glyph glyph-name="run" unicode="&#58888;" d="M484.937143 822.857143c-8.777143-3.657143-21.211429-14.628571-27.794286-24.868572-11.702857-17.554286-11.702857-21.211429-0.731428-53.394285 6.582857-18.285714 11.702857-35.108571 11.702857-36.571429 0-0.731429-12.434286-8.045714-27.062857-14.628571-20.48-9.508571-29.257143-19.748571-35.108572-38.765715-3.657143-13.897143-13.165714-34.377143-20.48-45.348571-15.36-22.674286-86.308571-59.245714-102.4-52.662857-5.851429 2.194286-15.36-3.657143-22.674286-14.628572-19.017143-29.988571-15.36-35.84 19.748572-29.988571 16.822857 2.925714 45.348571 8.045714 64.365714 10.24 18.285714 2.925714 45.348571 12.434286 59.977143 21.942857l27.062857 16.822857 11.702857-27.794285c11.702857-27.062857 29.988571-100.937143 37.302857-147.017143 2.925714-20.48-0.731429-28.525714-32.914285-62.171429C409.6 283.794286 380.342857 233.325714 380.342857 209.92c0-33.645714 57.782857-52.662857 157.988572-52.662857h53.394285l51.2-62.902857c28.525714-34.377143 51.931429-66.56 51.931429-71.68 0-5.12-5.12-15.36-10.971429-23.405715-13.165714-17.554286-14.628571-61.44-1.462857-61.44 12.434286 0 85.577143 66.56 85.577143 77.531429 0 4.388571-7.314286 13.897143-16.091429 21.942857C732.16 54.857143 694.857143 113.371429 694.857143 126.537143c0 19.017143-38.034286 89.234286-48.274286 89.234286-5.12 0-11.702857 7.314286-13.165714 16.822857-14.628571 70.948571-10.971429 175.542857 5.12 159.451428 4.388571-4.388571 17.554286-8.045714 28.525714-8.045714 15.36 0 20.48 3.657143 20.48 14.628571 0 8.045714-2.925714 14.628571-6.582857 14.628572s-9.508571 7.314286-11.702857 16.091428c-3.657143 10.971429-0.731429 19.017143 9.508571 27.062858 19.748571 15.36 47.542857 86.308571 42.422857 107.52-5.12 20.48-76.8 81.92-130.194285 112.64-47.542857 26.331429-54.857143 34.377143-43.154286 46.08 8.777143 8.777143 10.971429 70.217143 2.194286 82.651428-5.851429 9.508571-34.377143 24.868571-43.154286 24.137143-2.925714 0-13.165714-2.925714-21.942857-6.582857z"  horiz-adv-x="1024" />

    
    <glyph glyph-name="shubiao" unicode="&#58882;" d="M845.44 440.704l-149.76 149.76a277.568 277.568 0 0 1-367.68 21.632l-11.52 11.52a76.864 76.864 0 0 0-13.44 91.392l32 59.264a35.456 35.456 0 1 1-62.464 33.6l-31.872-59.264a147.52 147.52 0 0 1 25.664-175.232l12.16-12.096a277.568 277.568 0 0 1 25.28-362.752l149.76-149.824a276.48 276.48 0 0 1 196.032-81.088c71.04 0 142.016 27.008 196.032 81.088a275.2 275.2 0 0 1 80.896 195.968c0 74.24-28.8 143.936-81.024 196.032z m-340.672-51.2a35.456 35.456 0 0 0-50.176 0l-52.288 52.288a35.456 35.456 0 1 0 50.176 50.24l52.288-52.352a35.584 35.584 0 0 0 0-50.176z"  horiz-adv-x="1024" />

    
    <glyph glyph-name="jian-tianchong" unicode="&#58884;" d="M839.479 730.44L624.44 658.76 511.798 525.639l-107.519 128L184.12 730.44l71.679-215.039 143.36-117.762-71.68-102.399-66.559 71.68-76.8-71.68 71.679-71.68-71.679-71.68-35.84 35.84-35.84-35.84 143.359-143.363 35.84 35.844-35.84 35.84 71.68 71.68 71.68-71.68 71.68 71.68-66.559 66.559 107.519 87.039 107.52-87.039-66.559-66.559 71.68-71.68 71.68 71.68 71.68-71.68-35.84-35.84 35.84-35.844L911.159 151.88l-35.84 35.84-35.84-35.84-71.68 71.68 71.68 71.68-71.68 71.68-66.559-66.559-76.801 92.156 143.36 117.763 71.68 220.16z m0 0"  horiz-adv-x="1024" />

    
    <glyph glyph-name="yizhijiaoyu" unicode="&#59363;" d="M822.272 403.456h-57.856V558.592c0 43.008-34.816 77.312-77.312 77.312h-155.136V694.272c0 53.248-43.008 96.768-96.768 96.768-53.248 0-96.768-43.008-96.768-96.768v-57.856H182.784c-43.008 0-77.312-34.816-77.312-77.312l-0.512-147.456h57.856c57.856 0 104.448-47.104 104.448-104.448 0-57.856-47.104-104.448-104.448-104.448H105.472l-0.512-147.456c0-43.008 34.816-77.312 77.312-77.312h147.456V35.84c0 57.856 47.104 104.448 104.448 104.448 57.856 0 104.448-47.104 104.448-104.448v-57.856H686.08c43.008 0 77.312 34.816 77.312 77.312V209.92h57.856c53.248 0 96.768 43.008 96.768 96.768 1.024 53.76-42.496 96.768-95.744 96.768z"  horiz-adv-x="1024" />

    
    <glyph glyph-name="yundong" unicode="&#58904;" d="M390.342348 287.509905c-17.240496 17.240496-34.469566 41.370334-68.950557 41.370334-65.488748-3.427534-127.549962 0-193.08441 0-24.129839 0-44.820718-3.427534-41.370334-27.580223 0-24.129839 20.679455-27.580223 44.809293-27.580223h244.805897c13.790111-3.427534 27.580223 0 13.790111 13.790112zM128.353081 497.78911c41.370334 0 79.278859 3.427534 120.649194 0 48.259677-6.855068 86.179628 10.351152 117.210235 58.61083H128.353081c-20.69088 0-41.370334-3.427534-41.370334-27.580223 3.427534-24.129839 20.679455-31.030607 41.370334-31.030607z m-10.339727-110.309466h144.779032c10.282602 0 31.030607-10.339727 31.030607 13.790111 0 17.240496-3.427534 34.469566-24.141263 37.91995a609.872534 609.872534 0 0 1-158.569144 0c-13.790111-3.427534-27.580223-13.790111-24.129839-27.580222s13.790111-24.129839 31.030607-24.129839z m0 0M935.011762 511.590647c-17.240496 44.809293-55.160446 24.129839-86.179627 24.129839-27.580223 0-58.61083-31.030607-82.740669-10.351153-20.679455 17.240496-34.469566 48.259677-41.370334 75.8399-13.824387 34.469566-41.358909 61.992663-62.049789 96.53078 79.290284-31.030607 131.000346-3.427534 151.6798 34.469567 27.580223 44.809293 20.69088 103.420123-17.22907 134.439305C759.202123 901.118451 704.041677 904.568835 662.671343 880.438996c-51.710062-34.469566-62.049789-79.278859-24.129839-165.469912-58.599405 17.240496-103.420123 44.820718-155.130185 65.500173-20.679455 6.855068-37.908525 27.580223-62.038364 17.240496-62.049789-24.141264-124.065302-51.710062-182.710407-79.290285-41.370334-13.790111-48.259677-37.91995-34.469566-68.939132 13.790111-20.69088 44.809293-31.030607 75.8399-17.240496 27.580223 10.339727 55.149021 24.129839 79.290284 37.919951 44.809293 24.129839 82.729243 24.129839 127.549962-6.855068 27.568798-20.679455 24.118414-31.019182 3.427534-51.698637-44.809293-44.820718-96.519355-86.191053-134.439305-137.901114-27.580223-37.91995-27.580223-75.828475 6.855068-110.309466 41.370334-41.358909 86.179628-79.290284 127.549962-117.19881 13.790111-13.801537 24.129839-24.141264-6.855068-31.030607-41.358909-6.855068-82.729243-17.240496-124.088153-27.580223-31.030607-6.855068-55.160446-34.469566-48.271102-58.599405 6.855068-27.580223 41.370334-48.271103 72.400941-41.370334 82.729243 20.69088 165.458487 37.91995 248.199156 55.160446 41.358909 10.282602 62.049789 51.710062 37.91995 86.179627l-72.400941 93.080396c-55.149021 75.8399-51.698636 75.8399 13.790111 141.328649 37.91995 37.91995 37.91995 37.91995 65.500173-10.339728 13.790111-20.69088 24.129839-44.809293 55.160446-44.809293 62.049789 3.427534 120.649194 20.679455 179.260023 37.91995 24.129839 10.282602 31.019182 44.809293 24.129839 65.500173zM624.762818 132.37972c-31.030607-20.679455-72.400941-10.282602-103.420124-27.568798-10.351152-6.855068-20.69088-13.790111-24.129838-20.690879-27.580223-44.809293-55.160446-89.630012-86.191053-134.439306-17.22907-27.580223-10.282602-48.259677 10.351152-65.500173 24.129839-17.240496 51.698636-17.240496 68.939132 6.855068 51.710062 68.950557 103.420123 141.351498 155.130185 213.741015 13.790111 20.679455 0 24.129839-20.679454 27.568798z m0 0"  horiz-adv-x="1024" />

    
    <glyph glyph-name="ico_repaly" unicode="&#59308;" d="M512 554.666667l170.666667 128-170.666667 128v-85.333334c-188.586667 0-341.333333-152.746667-341.333333-341.333333 0-66.986667 19.626667-129.28 52.906666-181.76L285.866667 264.533333A250.453333 250.453333 0 0 0 256 384c0 141.226667 114.773333 256 256 256v-85.333333z m288.426667 11.093333L738.133333 503.466667c18.773333-35.84 29.866667-76.373333 29.866667-119.466667 0-141.226667-114.773333-256-256-256v85.333333l-170.666667-128 170.666667-128v85.333334c188.586667 0 341.333333 152.746667 341.333333 341.333333 0 66.986667-19.626667 129.28-52.906666 181.76z"  horiz-adv-x="1024" />

    
    <glyph glyph-name="trends02" unicode="&#58883;" d="M490.965333 724.064c11.562667 23.381333 30.464 23.381333 41.984 0l108.373333-219.477333c11.562667-23.424 42.154667-45.653333 67.968-49.408l242.261333-35.157333c25.813333-3.754667 31.658667-21.76 12.970667-40.021333l-175.232-170.837333c-18.688-18.261333-30.421333-54.186667-25.984-79.914667l41.429333-241.237333c4.437333-25.728-10.922667-36.821333-34.005333-24.661333l-216.661333 113.877333c-23.125333 12.16-60.885333 12.16-84.010667 0l-216.661333-113.877333c-23.125333-12.16-38.4-1.024-34.005333 24.661333l41.386667 241.237333c4.437333 25.770667-7.253333 61.653333-25.941333 79.914667l-175.274667 170.837333c-18.688 18.261333-12.842667 36.266667 12.970667 40.021333l242.218667 35.157333c25.856 3.754667 56.448 25.984 67.968 49.408L490.965333 724.064z"  horiz-adv-x="1024" />

    
    <glyph glyph-name="shooting" unicode="&#58914;" d="M582.328889-42.709333l-48.355556 265.272889a48.298667 48.298667 0 0 1-15.715555 27.662222L341.333333 455.111111v-181.688889l100.508445-84.664889 45.326222-248.704a48.398222 48.398222 0 0 1 87.324444-18.844444c7.310222 10.524444 10.126222 23.495111 7.836445 36.081778zM492.259556 760.888889a87.04 87.04 0 0 1-56.135112 34.346667 88.817778 88.817778 0 0 1-64.725333-14.222223c-15.416889-10.581333-151.466667-110.023111-184.462222-345.671111-0.384-2.588444-0.156444-5.12-0.284445-7.68-1.365333-9.016889-2.56-9.713778-0.796444-25.116444a14.833778 14.833778 0 0 1-0.910222-6.556445l73.500444-211.811555-71.452444-221.866667a47.032889 47.032889 0 0 1 11.406222-46.776889 50.531556 50.531556 0 0 1 47.473778-13.795555c17.208889 3.953778 30.961778 16.512 36.053333 32.967111l74.339556 231.253333c1.905778 6.158222 2.517333 12.657778 1.749333 19.086222l0.327111 234.965334c-0.284444 2.332444-1.308444 4.238222-2.261333 6.172444 1.365333 0.938667 2.133333 1.877333 2.261333 2.844445 17.863111 146.446222 118.997333 236.700444 123.847111 240.270222 38.328889 27.022222 37.489778 53.973333 10.069334 91.591111zM355.328 384H190.051556l67.100444-198.016-70.200889-223.274667a48.312889 48.312889 0 0 1 32.654222-60.216889c25.756444-7.68 52.906667 6.855111 60.629334 32.426667l73.045333 232.704c1.991111 6.200889 2.673778 12.743111 2.048 19.228445V384zM672.085333 678.371556c-14.08 13.326222-36.920889 13.326222-51.015111 0l-123.420444-116.736L462.051556 597.333333H309.831111c-19.854222 0-36.081778 15.36-36.081778 34.133334 0 18.773333 16.227556 34.133333 36.081778 34.133333h180.394667V711.111111H318.193778c-25.315556-29.781333-53.475556-71.182222-76.416-126.136889 15.729778-20.764444 41.045333-33.095111 68.053333-33.137778h94.890667c1.336889 2.702222-2.076444-4.451556-5.034667-10.894222l82.545778-51.640889c14.321778-9.031111 33.379556-7.253333 45.539555 4.252445l144.312889 136.533333c6.784 6.4 10.581333 15.075556 10.581334 24.135111s-3.797333 17.749333-10.581334 24.149334zM355.555556 768c0-54.983111 41.386667-99.555556 92.444444-99.555556S540.444444 713.016889 540.444444 768c0 35.555556-17.621333 68.437333-46.222222 86.215111a86.755556 86.755556 0 0 1-92.444444 0C373.176889 836.437333 355.555556 803.569778 355.555556 768zM512 696.888889h327.111111v-56.888889H512zM545.365333 597.333333H293.745778C272.981333 597.333333 256 613.333333 256 632.888889s16.981333 35.555556 37.745778 35.555555h251.619555C566.129778 668.444444 583.111111 652.444444 583.111111 632.888889S566.129778 597.333333 545.365333 597.333333z"  horiz-adv-x="1024" />

    
    <glyph glyph-name="nvhai" unicode="&#58912;" d="M512 832C264.576 832 64 631.424 64 384s200.576-448 448-448 448 200.576 448 448S759.424 832 512 832z m293.827-491.039c1.83-13.426 3.966-26.037 6.407-37.834a5909.824 5909.824 0 0 1 6.713-32.037c2.034-9.562 3.053-17.392 3.053-23.494 0-5.698-2.238-10.275-6.713-13.732-4.476-3.456-10.272-5.796-17.392-7.019-7.12-1.219-14.95-1.321-23.494-0.305-8.543 1.018-16.679 3.561-24.41 7.629-25.63 13.019-52.785 27.256-81.467 42.716a43296.453 43296.453 0 0 1-85.127 45.768c-3.253-5.29-7.831-9.561-13.732-12.815-5.898-3.256-12.305-4.882-19.222-4.882h-76.889c-6.917 0-13.324 1.626-19.223 4.882-5.898 3.254-10.475 7.525-13.728 12.815a44463.273 44463.273 0 0 1-85.13-45.768c-28.679-15.46-55.837-29.698-81.466-42.716-8.136-4.068-16.373-6.611-24.713-7.629-8.339-1.015-16.071-0.913-23.188 0.305-7.12 1.222-12.916 3.562-17.392 7.019-4.475 3.457-6.713 8.034-6.713 13.732 0 6.102 1.018 13.932 3.053 23.494a5590.657 5590.657 0 0 1 6.709 32.037c2.442 11.797 4.578 24.407 6.408 37.834a297.412 297.412 0 0 1 2.747 40.275c0 14.241-1.016 28.377-3.05 42.411-2.034 14.036-4.17 26.953-6.408 38.75-2.238 11.799-4.373 22.173-6.407 31.123-2.034 8.951-3.053 15.664-3.053 20.137 0 11.799 5.695 20.342 17.087 25.633 11.391 5.287 26.445 3.253 45.158-6.105a4186.392 4186.392 0 0 0 90.62-46.072 13491.123 13491.123 0 0 1 86.346-44.852c3.256 5.287 7.731 9.559 13.426 12.815 5.695 3.253 12.001 4.883 18.917 4.883h76.889c6.917 0 13.222-1.63 18.919-4.883 5.695-3.256 10.17-7.527 13.423-12.815a13541.08 13541.08 0 0 1 86.349 44.852 4197.798 4197.798 0 0 0 90.62 46.072c18.713 9.358 33.766 11.392 45.158 6.105 11.389-5.29 17.087-13.833 17.087-25.633 0-4.472-0.917-11.186-2.747-20.137-1.83-8.95-3.966-19.324-6.407-31.123-2.442-11.796-4.68-24.713-6.713-38.75a295.288 295.288 0 0 1-3.053-42.411 298.04 298.04 0 0 1 2.748-40.275z"  horiz-adv-x="1024" />

    
    <glyph glyph-name="kids" unicode="&#58890;" d="M7.114667 896m192 0l640 0q192 0 192-192l0-640q0-192-192-192l-640 0q-192 0-192 192l0 640q0 192 192 192ZM808.874667 310.805333c0 27.605333-12.650667 53.418667-33.429334 69.525334-2.848 51.68-19.434667 101.045333-48.181333 142.912a16.426667 16.426667 0 0 1-12.842667 7.2 267.413333 267.413333 0 0 1-27.925333 32.490666c-1.354667 1.322667-2.784 2.496-4.16 3.786667 7.146667 29.6-0.213333 62.336-22.186667 85.312-15.424 16.138667-35.893333 25.258667-57.738666 25.642667-9.194667 0-16.810667-7.946667-16.992-17.706667-0.138667-9.952 7.36-18.165333 16.714666-18.346667a48.330667 48.330667 0 0 0 34.197334-15.264c9.088-9.514667 13.802667-21.866667 14.506666-34.432a246.613333 246.613333 0 0 1-95.392 39.04 16.170667 16.170667 0 0 1-6.528 2.293334 245.141333 245.141333 0 0 1-28.394666 1.642666c-1.248 0-2.496-0.170667-3.733334-0.181333-1.258667 0.010667-2.485333 0.181333-3.722666 0.181333-9.557333 0-19.093333-0.554667-28.384-1.642666-2.325333-0.277333-4.544-1.066667-6.528-2.282667-48.746667-8.650667-94.229333-31.946667-131.061334-68.053333a267.434667 267.434667 0 0 1-27.936-32.48 16.458667 16.458667 0 0 1-12.842666-7.2c-28.736-41.845333-45.333333-91.232-48.181334-142.912-20.757333-16.106667-33.418667-41.92-33.418666-69.525334 0-0.554667 0.149333-1.066667 0.16-1.621333 0-0.341333-0.064-0.693333-0.064-1.034667 0-42.816 30.122667-79.498667 70.048-85.376l0.458666-0.085333 0.245334-0.394667c46.890667-80.565333 128.202667-128.661333 217.504-128.661333 1.248 0 2.496 0.106667 3.733333 0.128 1.237333-0.021333 2.485333-0.128 3.733333-0.128 89.301333 0 170.592 48.096 217.493334 128.661333l0.245333 0.394667 0.458667 0.085333c39.936 5.866667 70.037333 42.56 70.037333 85.376 0 0.341333-0.053333 0.693333-0.053333 1.034667 0.010667 0.554667 0.16 1.066667 0.16 1.621333z m-183.68 100.757334a33.706667 33.706667 0 0 0 24.426666-10.581334c6.762667-7.04 10.496-16.426667 10.496-26.464 0-20.405333-15.669333-37.024-34.922666-37.024s-34.944 16.618667-34.944 37.034667c0 20.426667 15.68 37.024 34.944 37.024z m-213.824 0c9.173333 0 17.856-3.754667 24.426666-10.581334 6.773333-7.04 10.485333-16.426667 10.485334-26.464 0-9.813333-3.594667-19.082667-10.133334-26.048a33.642667 33.642667 0 0 0-24.778666-10.986666c-19.264 0-34.933333 16.629333-34.933334 37.045333 0 20.426667 15.658667 37.024 34.933334 37.024z m259.424-136.853334c-1.418667-3.018667-2.944-6.005333-4.512-8.938666-30.624-56.693333-87.914667-91.946667-149.546667-91.946667-65.578667 0-124.618667 38.634667-154.005333 100.842667-4.213333 8.906667-0.810667 19.765333 7.573333 24.213333 2.346667 1.237333 4.938667 1.898667 7.573333 1.898667 6.464 0 12.309333-3.797333 15.2-9.941334 23.594667-49.930667 70.986667-80.96 123.669334-80.96 49.461333 0 95.466667 28.288 120.053333 73.824 1.237333 2.293333 2.453333 4.672 3.573333 7.072 2.666667 6.037333 8.618667 9.952 15.210667 10.005334 2.634667 0 5.184-0.618667 7.552-1.866667 8.394667-4.437333 11.84-15.274667 7.658667-24.192z"  horiz-adv-x="1034" />

    
    <glyph glyph-name="remensousuo" unicode="&#58898;" d="M434.944-42.672s-363.648 85.328-201.12 508.8c0 0 36.896-47.056 31.824-69.712 0 0 28.912 106.896 91.36 170.736 53.6 54.88 108.064 209.12 57.84 264.848 0 0 248.8-55.744 276.512-334.544 0 0 31.84 88.832 97.184 97.616 0 0-20.096-48.8 0-122.016 0 0 206.08-376.32-149.12-503.52 0 0 106.48 128.96-119.328 350.256 0 0-53.232-118.512-85.072-160.288-0.08-0.096-88.912-106.304-0.08-202.176z"  horiz-adv-x="1024" />

    
    <glyph glyph-name="quanping" unicode="&#59165;" d="M348.373 270.293l-128-128-64-64v128a33.28 33.28 0 0 1-35.413 35.414 33.493 33.493 0 0 1-35.627-35.414V-7.04a33.707 33.707 0 0 1 35.627-35.627h213.333a35.627 35.627 0 0 1 0 71.04h-128l64 64 128 128a35.2 35.2 0 0 1-49.92 49.92z m-142.08 469.334h128a33.28 33.28 0 0 1 35.414 35.413 33.493 33.493 0 0 1-35.414 35.627H113.707c-7.04 0-14.08-7.04-21.334-14.294a26.027 26.027 0 0 1-7.04-21.333v-213.333a33.493 33.493 0 0 1 35.627-35.414 33.28 33.28 0 0 1 35.413 35.414v128l192-192a35.2 35.2 0 0 1 49.92 49.92z m696.747 71.04H689.707a33.493 33.493 0 0 1-35.414-35.627 33.28 33.28 0 0 1 35.414-35.413h128l-64-64-128-128a35.2 35.2 0 0 1 49.92-49.92l128 128 64 64v-128a35.627 35.627 0 0 1 71.04 0V775.04a33.707 33.707 0 0 1-35.627 35.627z m0-568.96a33.28 33.28 0 0 1-35.413-35.414v-128l-64 64-128 128a35.2 35.2 0 0 1-49.92-49.92l128-128 64-64h-128a35.627 35.627 0 0 1 0-71.04H903.04a33.707 33.707 0 0 1 35.627 35.627V206.293a33.493 33.493 0 0 1-35.627 35.414z"  horiz-adv-x="1024" />

    
    <glyph glyph-name="qizhi" unicode="&#58901;" d="M827.188542 828.018699l-315.188542 0-315.188542 0c-26.906813 0-53.812603-23.063275-53.812603-53.812603l0-787.971355c0-19.218714 3.843538-34.593889 23.063275-42.281989 23.063275-11.530614 53.812603 3.843538 92.25003 23.063275 57.656141 30.749328 146.062634 73.031317 203.718775 99.93813 30.749328 15.375176 69.187779 15.375176 103.781668 0 53.812603-26.906813 142.220119-69.187779 199.87626-99.93813 38.437427-19.218714 69.186755-30.749328 92.25003-23.063275 15.375176 7.688099 23.063275 26.906813 23.063275 42.281989L881.002169 774.206096C877.157607 804.956448 854.094332 828.018699 827.188542 828.018699L827.188542 828.018699zM754.156202 485.924367l-69.187779-88.406492c-7.688099-11.531638-15.375176-34.593889-15.375176-49.969065l3.843538-115.313306c0-15.375176-11.530614-23.063275-26.906813-19.218714l-107.625206 38.437427c-15.375176 3.843538-38.437427 3.843538-53.812603 0l-107.625206-38.437427c-15.375176-3.843538-26.906813 3.843538-26.906813 19.218714l3.843538 115.313306c0 15.375176-7.688099 38.437427-15.375176 49.969065l-69.187779 88.406492c-7.688099 11.531638-3.843538 26.90579 11.530614 30.750351l111.468744 30.750351c15.375176 3.843538 34.593889 19.218714 42.281989 30.750351l65.344241 96.093569c7.688099 11.531638 23.063275 11.531638 30.749328 0l65.344241-96.093569c7.688099-11.531638 26.906813-26.90579 42.281989-30.750351l111.468744-30.750351C758.000763 512.830157 761.844302 497.454982 754.156202 485.924367L754.156202 485.924367z"  horiz-adv-x="1024" />

    
    <glyph glyph-name="zan2" unicode="&#58880;" d="M861.577 467.305h-223.037c86.425 319.186-59.547 335.487-59.547 335.487-61.867 0-49.042-48.918-53.716-57.076 0-156.096-165.796-278.407-165.796-278.407v-442.661c0-43.695 59.547-59.433 82.908-59.433h335.111c31.537 0 57.221 82.709 57.221 82.709 82.903 281.911 82.903 365.789 82.903 365.789 0.001 58.247-56.046 53.591-56.046 53.591v0 0zM861.577 467.305zM267.943 467.159h-133.553c-27.581 0-28.006-27.090-28.006-27.090l27.581-446.441c0-28.416 28.464-28.416 28.464-28.416h115.593c24.081 0 23.865 18.798 23.865 18.798v449.296c0 34.287-33.945 33.854-33.945 33.854v0 0zM267.943 467.159z"  horiz-adv-x="1024" />

    
    <glyph glyph-name="zan1" unicode="&#58881;" d="M162.423 300.69500000000005l223.037 0c-86.42499999-319.186 59.547-335.487 59.547-335.487 61.867 0 49.042 48.918 53.716 57.076 0 156.09600001 165.79599999 278.407 165.796 278.40700001l0 442.66099999c0 43.69499999-59.547 59.43300001-82.908 59.43299999l-335.111 0c-31.537 0-57.221-82.709-57.22100001-82.70899999-82.903-281.911-82.903-365.789-82.90299999-365.789-0.001-58.247 56.046-53.591 56.04600001-53.591v0 0zM162.423 300.69500000000005zM756.057 300.841l133.553 0c27.581 0 28.006 27.09 28.006 27.09l-27.581 446.441c0 28.41599999-28.464 28.41599999-28.46399999 28.416l-115.59300001 0c-24.081 0-23.865-18.798-23.865-18.798l0-449.296c0-34.287 33.945-33.854 33.945-33.854v0 0zM756.057 300.841z"  horiz-adv-x="1024" />

    
    <glyph glyph-name="qizhi1" unicode="&#59003;" d="M640 682.666667c-128 0-128 85.333333-256 85.333333S128 674.133333 128 674.133333V-42.666667h85.333333v290.133334c46.933333 25.6 110.933333 51.2 170.666667 51.2 128 0 128-128 256-128s256 128 256 128V768s-128-85.333333-256-85.333333"  horiz-adv-x="1024" />

    
    <glyph glyph-name="biaoxianhenbang-hui" unicode="&#59069;" d="M0 384c0-282.624 229.376-512 512-512s512 229.376 512 512S794.624 896 512 896 0 666.624 0 384zM1013.76 487.424C965.632 720.896 759.808 896 512 896 229.376 896 0 666.624 0 384c0-123.904 44.032-236.544 116.736-324.608 87.04-48.128 186.368-74.752 292.864-74.752 301.056 0 550.912 217.088 604.16 502.784zM194.048 539.648l90.112-39.936-88.576-34.304c-15.872-6.144-23.552-24.064-17.408-39.936 6.144-15.872 24.064-23.552 39.936-17.408l157.696 60.928c11.776 4.608 19.456 15.36 19.456 27.648 0.512 12.288-6.656 23.552-18.432 28.672L218.624 595.456c-15.36 6.656-33.792 0-40.448-15.36-6.656-15.36 0-33.792 15.872-40.448zM800.768 595.456l-157.696-70.144c-11.264-5.12-18.432-16.384-18.432-28.672 0.512-12.288 8.192-23.552 19.456-27.648l157.696-60.928c15.872-6.144 33.792 1.536 39.936 17.408 6.144 15.872-1.536 33.792-17.408 39.936l-88.576 34.304 90.112 39.936c15.36 6.656 22.528 25.088 15.36 40.448-7.168 15.36-25.088 22.528-40.448 15.36zM679.936 315.904c0-111.616-75.776-202.24-168.96-202.24s-168.96 90.624-168.96 202.24"  horiz-adv-x="1024" />

    
    <glyph glyph-name="biaoxianhenbang" unicode="&#59068;" d="M512 384m-512 0a512 512 0 1 1 1024 0 512 512 0 1 1-1024 0ZM1013.76 487.424C965.632 720.896 759.808 896 512 896 229.376 896 0 666.624 0 384c0-123.904 44.032-236.544 116.736-324.608 87.04-48.128 186.368-74.752 292.864-74.752 301.056 0 550.912 217.088 604.16 502.784zM194.048 539.648l90.112-39.936-88.576-34.304c-15.872-6.144-23.552-24.064-17.408-39.936 6.144-15.872 24.064-23.552 39.936-17.408l157.696 60.928c11.776 4.608 19.456 15.36 19.456 27.648 0.512 12.288-6.656 23.552-18.432 28.672L218.624 595.456c-15.36 6.656-33.792 0-40.448-15.36-6.656-15.36 0-33.792 15.872-40.448zM800.768 595.456l-157.696-70.144c-11.264-5.12-18.432-16.384-18.432-28.672s8.192-23.552 19.456-27.648l157.696-60.928c15.872-6.144 33.792 1.536 39.936 17.408 6.144 15.872-1.536 33.792-17.408 39.936l-88.576 34.304 90.112 39.936c15.36 6.656 22.528 25.088 15.36 40.448-7.168 15.36-25.088 22.528-40.448 15.36zM679.936 315.904c0-111.616-75.776-202.24-168.96-202.24s-168.96 90.624-168.96 202.24"  horiz-adv-x="1024" />

    
    <glyph glyph-name="dianzan" unicode="&#58937;" d="M512-50.688c-9.728 0-19.712 3.84-27.136 11.264L77.312 368.128C-25.6 471.04-25.6 638.464 77.312 741.376s270.336 102.912 373.248 0l61.44-61.44 61.44 61.44c102.912 102.912 270.336 102.912 373.248 0s102.912-270.336 0-373.248L539.136-39.424c-7.424-7.424-17.408-11.264-27.136-11.264zM263.936 741.888c-49.92 0-97.024-19.456-132.352-54.784-72.96-72.96-72.96-191.744 0-264.704L512 41.984 892.416 422.4A186.112 186.112 0 0 1 947.2 554.752c0 49.92-19.456 97.024-54.784 132.352-35.328 35.328-82.432 54.784-132.352 54.784s-97.024-19.456-132.352-54.784l-88.576-88.576c-15.104-15.104-39.424-15.104-54.272 0l-88.576 88.576a186.112 186.112 0 0 1-132.352 54.784z"  horiz-adv-x="1024" />

    
    <glyph glyph-name="iconfontyouxihudong" unicode="&#58934;" d="M1018.88 276.48C985.6 565.76 926.72 773.12 739.84 773.12c-94.72 0-143.36-97.28-227.84-104.96-87.04 7.68-133.12 104.96-227.84 104.96-186.88 0-245.76-207.36-276.48-494.08-17.92-153.6-2.56-281.6 92.16-281.6 133.12 0 138.24 120.32 232.96 176.64 35.84 17.92 115.2 25.6 181.76 28.16 66.56-2.56 145.92-10.24 181.76-28.16 94.72-56.32 99.84-176.64 232.96-176.64C1021.44-5.12 1034.24 122.88 1018.88 276.48L1018.88 276.48zM286.72 302.08C212.48 302.08 153.6 363.52 153.6 435.2s58.88 133.12 133.12 133.12 133.12-58.88 133.12-133.12S358.4 302.08 286.72 302.08L286.72 302.08zM883.2 409.6l-104.96 0 0-104.96-51.2 0L727.04 409.6l-104.96 0 0 51.2 104.96 0L727.04 563.2l51.2 0L778.24 460.8l104.96 0L883.2 409.6 883.2 409.6 883.2 409.6zM883.2 409.6M209.92 435.2c0-20.48 7.68-38.4 23.04-53.76 12.8-12.8 33.28-23.04 53.76-23.04 20.48 0 38.4 7.68 53.76 23.04 12.8 12.8 23.04 33.28 23.04 53.76 0 20.48-7.68 38.4-23.04 53.76-12.8 12.8-33.28 23.04-53.76 23.04-20.48 0-38.4-7.68-53.76-23.04C217.6 476.16 209.92 455.68 209.92 435.2L209.92 435.2zM209.92 435.2"  horiz-adv-x="1025" />

    
    <glyph glyph-name="bianjigushi" unicode="&#58925;" d="M575.968 389.696c74.208 73.248 130.016 98.304 260.512 67.936 14.912 13.76 28.864 27.008 40.672 38.752C1025.664 644.832 1008.16 800.16 1024.032 896c-95.872-15.936-428.384-2.272-576.736-150.72C316.128 614.048 190.752 268.928 160 128l-160-256h96l128 224c113.12 29.504 361.76 146.752 519.616 279.712-27.616 16.864-133.12 27.104-167.648 13.984zM249.792 190.048c58.432 87.2 246.176 447.872 614.016 612.608-42.336-47.648-519.968-488.608-614.016-612.608-8.928-13.248-13.824-20.992-13.824-20.992 2.496 5.248 7.328 12.448 13.824 20.992z"  horiz-adv-x="1024" />

    
    <glyph glyph-name="gaoxing_fill" unicode="&#58952;" d="M512 896C229.2 896 0 666.8 0 384s229.2-512 512-512 512 229.2 512 512S794.8 896 512 896z m148-328c35.3 0 64-28.7 64-64s-28.7-64-64-64-64 28.7-64 64 28.7 64 64 64z m-296 0c35.3 0 64-28.7 64-64s-28.7-64-64-64-64 28.7-64 64 28.7 64 64 64z m374.8-380.4C681.7 121.8 599.1 84 512 84c-87.1 0-169.7 37.8-226.8 103.6-14.5 16.7-12.7 42 4 56.4 16.7 14.5 42 12.7 56.4-4 41.9-48.3 102.5-76 166.3-76s124.5 27.7 166.3 76c14.5 16.7 39.7 18.5 56.4 4 16.8-14.5 18.6-39.7 4.2-56.4z"  horiz-adv-x="1024" />

    
    <glyph glyph-name="kaifazheshequicon-" unicode="&#59028;" d="M588.8 640l-57.6-44.8c-6.4-6.4-19.2-6.4-32 0h-6.4L435.2 640l-12.8-76.8c0-12.8-12.8-19.2-19.2-25.6h-6.4L320 524.8l44.8-57.6c6.4-6.4 6.4-19.2 0-32v-6.4l-44.8-57.6 70.4-12.8c12.8 0 19.2-12.8 25.6-19.2v-6.4l12.8-70.4 57.6 44.8c6.4 6.4 19.2 6.4 32 0h6.4l57.6-44.8 12.8 70.4c0 12.8 12.8 19.2 19.2 25.6h6.4l83.2 12.8-44.8 57.6c-6.4 6.4-6.4 19.2 0 32v6.4l44.8 57.6-76.8 12.8c-12.8 0-19.2 12.8-25.6 19.2v6.4L588.8 640z m38.4 83.2c6.4-6.4 12.8-12.8 12.8-19.2v-6.4l19.2-102.4 102.4-19.2c12.8 0 19.2-6.4 25.6-19.2 6.4-6.4 6.4-19.2 0-25.6v-6.4l-64-76.8 57.6-83.2c6.4-6.4 6.4-19.2 6.4-32-6.4-6.4-12.8-12.8-19.2-12.8h-6.4l-102.4-19.2-19.2-102.4c0-12.8-6.4-19.2-19.2-25.6-6.4-6.4-19.2-6.4-25.6 0h-6.4l-76.8 64-83.2-57.6c-6.4-6.4-19.2-6.4-32-6.4-6.4 6.4-12.8 12.8-12.8 19.2v6.4l-19.2 102.4L262.4 320c-12.8 0-19.2 6.4-25.6 19.2-6.4 6.4-6.4 19.2 0 25.6v6.4l64 76.8-57.6 83.2c-6.4 12.8-6.4 19.2-6.4 32l19.2 19.2h6.4l102.4 19.2L384 704c0 12.8 6.4 19.2 19.2 25.6 6.4 6.4 19.2 6.4 25.6 0h6.4L512 659.2l83.2 57.6c6.4 6.4 19.2 12.8 32 6.4zM512 864c243.2 0 441.6-198.4 441.6-441.6 0-115.2-44.8-224-121.6-307.2-6.4-6.4-19.2-12.8-32-6.4s-19.2 12.8-25.6 25.6 0 25.6 6.4 32c70.4 70.4 108.8 160 108.8 262.4 0 204.8-166.4 377.6-377.6 377.6s-377.6-179.2-377.6-384c0-102.4 38.4-198.4 115.2-268.8 6.4-6.4 12.8-19.2 6.4-32 0-12.8-12.8-19.2-25.6-25.6-12.8 0-25.6 0-32 6.4-76.8 89.6-128 198.4-128 320C70.4 665.6 268.8 864 512 864z m192-729.6c19.2 0 32-12.8 32-32v-160c0-6.4 0-12.8-6.4-19.2-12.8-12.8-32-19.2-44.8-6.4L512 25.6l-172.8-115.2c-6.4 0-6.4-6.4-12.8-6.4s-19.2 6.4-19.2 12.8-6.4 6.4-6.4 12.8v160c-12.8 25.6 0 38.4 19.2 38.4s32-12.8 32-32V0l140.8 96c6.4 0 6.4 6.4 12.8 6.4h12.8c6.4 0 6.4 0 12.8-6.4l140.8-96v108.8c0 12.8 12.8 25.6 32 25.6z"  horiz-adv-x="1024" />

    
    <glyph glyph-name="login-collect" unicode="&#60080;" d="M301.056 466.3296l36.1472 36.1984a25.6 25.6 0 0 0 36.2496 0l144.7936-144.7936a25.6 25.6 0 0 0 0-36.1984l-36.1984-36.1984a25.6 25.6 0 0 0-36.1984 0L301.0048 430.08a25.6 25.6 0 0 0 0 36.1984z m399.36 145.5616l36.2496-36.1984a25.6 25.6 0 0 0 0-36.1984l-253.44-253.44a25.6 25.6 0 0 0-36.1984 0l-36.1984 36.1984a25.6 25.6 0 0 0 0 36.1984l253.44 253.44a25.6 25.6 0 0 0 36.1984 0zM102.4 742.4v-563.2h819.2V742.4H102.4zM51.2 844.8h921.6a51.2 51.2 0 0 0 51.2-51.2v-665.6a51.2 51.2 0 0 0-51.2-51.2H51.2a51.2 51.2 0 0 0-51.2 51.2V793.6a51.2 51.2 0 0 0 51.2 51.2z m179.2-870.4h563.2a25.6 25.6 0 0 0 25.6-25.6v-51.2a25.6 25.6 0 0 0-25.6-25.6h-563.2a25.6 25.6 0 0 0-25.6 25.6v51.2a25.6 25.6 0 0 0 25.6 25.6z"  horiz-adv-x="1024" />

    
    <glyph glyph-name="yinle" unicode="&#59107;" d="M512 896c282.76736 0 512-229.23264 512-512S794.76736-128 512-128 0 101.23264 0 384 229.23264 896 512 896z m225.28-286.72H384l-19.78368-335.19616a70.656 70.656 0 1 1 43.33568-65.24928l15.31904 259.11296h259.072l-11.30496-193.86368a70.656 70.656 0 1 1 43.08992-65.24928L737.28 609.28z"  horiz-adv-x="1024" />

    
    <glyph glyph-name="jurassic_zan" unicode="&#59030;" d="M955.1 429.4c-5.5 8.4-14.9 13.4-24.9 13.4H625.5V714.2c0 47.3-38.4 85.8-85.6 85.8h-55.8c-47.2 0-85.6-38.5-85.6-85.8v-161.7c0-0.7 0-1.4 0.1-2.1 0-0.4 1.9-40.2-26.3-70.5-23-24.7-60.4-37.2-111.2-37.2H64V-32h698.9c11.9 0 22.7 7.1 27.5 18.1l167.3 415c3.8 9.3 2.9 19.9-2.6 28.3zM123.7 383h107.5v-355.4H123.7V383z m619.5-355.2H291V384.3c53.6 4.9 95.5 23.3 125 54.9 43 46.2 42.7 104.2 42.3 114.1v161c0 14.3 11.6 25.9 25.9 25.9H540c14.3 0 25.9-11.6 25.9-25.9v-273.4h2V383H885L743.2 27.799999999999955z"  horiz-adv-x="1024" />

    
    <glyph glyph-name="ai-ios" unicode="&#58929;" d="M804.997 351.854c1.488-154.847 142.427-206.377 144.069-207.096-1.283-3.541-22.583-73.446-74.37-145.66-44.755-62.411-91.102-124.463-164.24-125.746-71.957-1.283-95.002 40.649-177.225 40.649-82.171 0-107.885-39.366-175.89-41.932-70.52-2.566-124.309 67.338-169.423 129.493-92.282 127.183-162.7 359.326-68.057 516.020 46.962 77.86 130.981 127.080 222.083 128.415 69.34 1.18 134.83-44.601 177.122-44.601 42.446 0 121.948 55.020 205.556 46.962 34.952-1.386 133.239-13.447 196.318-101.418-5.030-3.131-117.277-65.337-115.943-195.086zM510.598 660.008c-8.109 58.87 22.275 120.049 56.971 158.491 38.75 43.267 104.138 75.448 158.132 77.501 6.929-59.947-18.426-120.152-55.841-163.521-37.518-43.216-99.006-76.936-159.261-72.471z"  horiz-adv-x="1024" />

    
    <glyph glyph-name="google-play" unicode="&#61889;" d="M650.6 427.4L209.2 870l561.6-322.4-120.2-120.2zM94 896C68 882.4 50.6 857.6 50.6 825.4v-882.6c0-32.2 17.4-57 43.4-70.6l513.2 512L94 896z m850.4-451.2l-117.8 68.2-131.4-129 131.4-129 120.2 68.2c36 28.6 36 93-2.4 121.6zM209.2-102l561.6 322.4-120.2 120.2L209.2-102z"  horiz-adv-x="1024" />

    
    <glyph glyph-name="xingxing" unicode="&#58946;" d="M949.12 509.408c-4.864 15.008-17.856 25.952-33.44 28.192l-256.992 37.344-114.944 232.896c-6.976 14.144-21.376 23.104-37.152 23.104-15.776 0-30.176-8.96-37.152-23.104l-114.944-232.896L97.472 537.6c-15.616-2.272-28.576-13.184-33.44-28.192s-0.8-31.456 10.496-42.464l185.984-181.28-43.904-255.968c-2.656-15.552 3.712-31.264 16.48-40.544 12.768-9.28 29.664-10.496 43.648-3.136l229.888 120.864 229.856-120.864c6.048-3.168 12.672-4.768 19.264-4.768 8.576 0 17.152 2.656 24.352 7.904 12.768 9.28 19.136 24.992 16.48 40.544l-43.904 255.968 185.984 181.28C949.92 477.952 953.984 494.4 949.12 509.408z"  horiz-adv-x="1024" />

    
    <glyph glyph-name="facebook" unicode="&#59013;" d="M767.414857 889.161143v-150.857143h-89.709714c-70.290286 0-83.419429-33.718857-83.419429-82.285714v-107.995429h167.424l-22.272-169.142857H594.285714v-433.700571H419.437714V378.88H273.737143V548.022857h145.700571V672.585143C419.437714 817.152 508.013714 896 637.147429 896c61.696 0 114.870857-4.571429 130.304-6.838857z"  horiz-adv-x="1024" />

    
    <glyph glyph-name="twitter" unicode="&#60595;" d="M962.267429 662.820571q-38.253714-56.027429-92.598857-95.451429 0.585143-7.972571 0.585143-23.990857 0-74.313143-21.723429-148.260571t-65.974857-141.970286-105.398857-120.32-147.456-83.456-184.539429-31.158857q-154.843429 0-283.428571 82.870857 19.968-2.267429 44.544-2.267429 128.585143 0 229.156571 78.848-59.977143 1.170286-107.446857 36.864t-65.170286 91.136q18.870857-2.852571 34.889143-2.852571 24.576 0 48.566857 6.290286-64 13.165714-105.984 63.707429t-41.984 117.394286l0 2.267429q38.838857-21.723429 83.456-23.405714-37.741714 25.161143-59.977143 65.682286t-22.308571 87.990857q0 50.322286 25.161143 93.110857 69.12-85.138286 168.301714-136.265143t212.260571-56.832q-4.534857 21.723429-4.534857 42.276571 0 76.580571 53.979429 130.56t130.56 53.979429q80.018286 0 134.875429-58.294857 62.317714 11.995429 117.174857 44.544-21.138286-65.682286-81.115429-101.741714 53.174857 5.705143 106.276571 28.598857z"  horiz-adv-x="1024" />

    
    <glyph glyph-name="pinterest" unicode="&#59894;" d="M565.333333 160C522.666667 160 481.706667 178.346667 452.266667 209.066667L401.493333 38.4 398.08 27.306667 396.373333 28.16C385.706667 10.666667 367.36 0 346.453333 0 314.453333 0 288 26.453333 288 58.88 288 61.44 288.426667 64 288.853333 66.56L288 66.986667 290.56 76.373333 389.12 372.906667C389.12 372.906667 378.453333 405.333333 378.453333 451.413333 378.453333 543.146667 427.946667 570.88 467.2 570.88 506.88 570.88 543.146667 556.8 543.146667 500.906667 543.146667 429.226667 495.36 392.533333 495.36 341.333333 495.36 301.226667 527.786667 269.226667 567.04 269.226667 691.626667 269.226667 736 362.666667 736 450.56 736 567.04 635.306667 661.333333 512 661.333333 388.266667 661.333333 288 567.04 288 450.56 288 414.72 298.666667 378.88 317.013333 347.733333 321.706667 339.2 324.266667 329.813333 324.266667 320 324.266667 290.56 300.373333 266.666667 270.933333 266.666667 252.16 266.666667 234.666667 277.333333 224.853333 293.12 196.266667 341.333333 181.333333 395.52 181.333333 450.56 181.333333 625.92 329.813333 768 512 768 694.186667 768 842.666667 625.92 842.666667 450.56 842.666667 310.613333 755.626667 160 565.333333 160Z"  horiz-adv-x="1024" />

    
    <glyph glyph-name="diannao" unicode="&#58964;" d="M820.6 155.9h-206v-91.3h45.6c8.3 0.3 16.2-4 20.4-11.2 4.3-7.2 4.3-16.1 0-23.3-4.3-7.2-12.1-11.5-20.4-11.2H386.4c-12.6 0-22.8 10.2-22.8 22.8s10.2 22.8 22.8 22.8H432v91.3H203.2c-50.4 0-91.3 40.9-91.3 91.3V657.9c0 50.4 40.9 91.2 91.3 91.2h617.5c50.4 0 91.2-40.8 91.3-91.2v-410.7c-0.1-50.4-41-91.3-91.4-91.3zM157.5 292.8v-45.7c0-25.2 20.4-45.6 45.6-45.6h617.5c25.2 0 45.7 20.5 45.7 45.6v45.7H157.5z m0 0"  horiz-adv-x="1024" />

    
    <glyph glyph-name="icon_video" unicode="&#58903;" d="M64 384c0 247.415 200.584 448 448 448 247.415 0 448-200.584 448-448 0-247.415-200.584-448-448-448-247.415 0-448 200.584-448 448M414.844 586.257c-28.791 15.859-52.177 2.18-52.177-30.673v-343.138c0-32.614 23.356-46.562 52.177-30.673l314.227 173.436c28.732 15.889 28.791 41.694 0 57.613l-314.227 173.436z"  horiz-adv-x="1024" />

    
    <glyph glyph-name="pingguo" unicode="&#58891;" d="M894.952065 153.966377c-1.27992-3.83976-21.310668-73.147428-70.523592-144.438972-42.621336-61.500156-86.71458-123.51228-156.278232-124.600213-68.47572-1.215924-90.362352 40.509468-168.501469 40.509468-78.011124 0-102.521592-39.421536-167.221549-41.725392-66.87582-2.687832-118.3926 67.1958-161.077932 128.375977C83.866758 137.455409 16.606962 367.329042 106.841322 521.367415c44.47722 77.11518 124.280232 126.07212 211.186801 127.480032 65.531904 1.215924 127.864008-44.029248 167.669521-44.029248 40.893444 0 116.280732 54.71658 195.827761 46.525092 33.27792-1.407912 126.456096-13.75914 186.484344-100.089744-4.671708-3.1998-111.481032-65.659896-110.265108-192.883945 1.5999-153.526405 135.799513-203.891257 137.207424-204.403225M629.496656 733.642147c35.83776 43.389288 59.452284 103.03356 53.244673 162.293857-51.1968-1.983876-113.656896-33.725892-150.710581-76.923192-32.829948-37.629648-61.692144-98.23386-53.628648-156.790201 56.892444-3.391788 115.384788 29.566152 151.03056 71.419536"  horiz-adv-x="1024" />

    
    <glyph glyph-name="07" unicode="&#59039;" d="M860.974615 803.690586H164.151109c-42.777533 0-78.391365-33.771737-78.391365-76.753948v-511.181291c0-20.877074 8.494104-40.8331 23.128523-55.365181 14.532081-14.429742 34.385769-22.821507 55.262842-22.821507h213.171298c-5.219268-74.40016-34.692784-118.610434-36.125525-120.759544-7.26604-10.029182-8.187088-23.3332-2.558465-34.385769s17.090546-18.113932 29.575854-18.113932H657.013792c12.38297 0 23.947232 7.368379 29.575854 18.420948s4.707575 23.947232-2.660803 33.976414c-1.43274 2.149111-31.008595 46.564062-36.227864 120.964221h213.273636c43.289226 0 77.265641 35.613832 77.265641 78.289027V726.936638c0 43.084549-33.976414 76.753948-77.265641 76.753948z m-696.823506-65.906057h696.823506c6.652009 0 11.359584-4.40056 11.359584-10.847891v-353.682191H151.665801V726.936638c0 6.754347 6.037977 10.847891 12.485308 10.847891z m439.85129-707.671397H421.020987c10.131521 26.505697 19.853688 62.426544 22.412153 107.353188h138.157106c2.558465-44.926644 12.280632-80.847492 22.412153-107.353188z m256.972216 173.361583H164.151109c-6.652009 0-12.485309 5.730961-12.485308 12.280632v91.593044h720.668398v-91.593044c0-6.242654-4.40056-12.280632-11.359584-12.280632z"  horiz-adv-x="1024" />

    


  </font>
</defs>
</svg>
